<svg xmlns="http://www.w3.org/2000/svg" viewBox="157 356.185 100 81.628"><path d="M252.094 436.247h-63.465a3.34 3.34 0 01-3.34-3.34v-35.073a3.34 3.34 0 013.34-3.34h63.465a3.34 3.34 0 013.34 3.34v35.073a3.34 3.34 0 01-3.34 3.34z" fill="#006131"/><path d="M230.591 389.484c-7.946 0-10.217 2.42-10.217 2.42s-2.27-2.42-10.217-2.42c-7.034 0-15.21 1.743-17.524 2.27a.824.824 0 00-.639.812v36.701c0 .535.486.933 1.008.817 2.719-.606 10.455-2.187 17.156-2.187 5.407 0 8.187 1.12 9.41 1.837a1.6 1.6 0 001.613 0c1.224-.716 4.003-1.837 9.41-1.837 6.7 0 14.437 1.581 17.156 2.187a.829.829 0 001.008-.817v-36.701a.823.823 0 00-.639-.812c-2.315-.528-10.491-2.27-17.525-2.27z" fill="#e4eaf8"/><path d="M210.093 389.484c-7.02.011-15.153 1.743-17.46 2.269a.824.824 0 00-.639.812v17.695c9.531-2.645 16.761-10.768 18.099-20.776z" fill="#d5dced"/><circle cx="185.288" cy="386.143" r="20.042" fill="#93dd1f"/><path d="M252.094 392.928h-1.775v-1.025c0-.721-.493-1.349-1.193-1.521-.411-.101-10.154-2.465-18.536-2.465-5.67 0-8.738 1.197-10.217 2.063-1.479-.867-4.547-2.063-10.217-2.063-1.046 0-2.167.039-3.344.113.054-.622.084-1.252.084-1.888 0-11.914-9.693-21.607-21.607-21.607s-21.607 9.693-21.607 21.607c0 11.388 8.855 20.745 20.042 21.55v25.214a4.912 4.912 0 004.906 4.906h63.465a4.912 4.912 0 004.906-4.906v-35.073a4.913 4.913 0 00-4.907-4.905zm-75.611-23.024a19.59 19.59 0 00-.814 1.279 22.26 22.26 0 00-.957 1.846 36.202 36.202 0 01-1.778-.61 18.545 18.545 0 013.549-2.515zm-5.835 4.984c.965.395 1.94.75 2.923 1.065-.857 2.645-1.369 5.574-1.501 8.625h-5.19a18.377 18.377 0 013.768-9.69zm-3.768 12.821h5.19c.131 3.051.644 5.979 1.501 8.625a39.85 39.85 0 00-2.923 1.065 18.383 18.383 0 01-3.768-9.69zm6.054 12.159a36.202 36.202 0 011.778-.61c.297.64.614 1.258.957 1.845.261.448.533.873.814 1.279a18.584 18.584 0 01-3.549-2.514zm10.789 4.519c-2.311-.687-4.39-2.863-5.92-5.951a34.964 34.964 0 015.92-.769v6.72zm0-9.854a38.233 38.233 0 00-7.117.963c-.771-2.333-1.268-4.982-1.404-7.787h8.521v6.824zm0-9.955h-8.521c.136-2.805.633-5.454 1.404-7.787 2.337.544 4.714.866 7.117.963v6.824zm0-9.958a35.08 35.08 0 01-5.92-.769c1.53-3.088 3.609-5.264 5.92-5.951v6.72zm19.975 9.958h-5.19c-.131-3.051-.644-5.979-1.501-8.625a39.85 39.85 0 002.923-1.065 18.377 18.377 0 013.768 9.69zm-6.69 11.755c.857-2.645 1.369-5.573 1.5-8.624h5.19a18.384 18.384 0 01-3.767 9.689c-.966-.396-1.94-.75-2.923-1.065zm.636 3.535a18.584 18.584 0 01-3.549 2.514c.281-.405.552-.831.814-1.279.343-.588.66-1.206.957-1.846.596.188 1.188.392 1.778.611zm0-27.45c-.589.219-1.182.423-1.778.61a22.26 22.26 0 00-.957-1.846 19.438 19.438 0 00-.814-1.279 18.633 18.633 0 013.549 2.515zm-10.789-4.518c2.311.687 4.39 2.863 5.92 5.951a35.067 35.067 0 01-5.92.77V367.9zm0 9.854a38.233 38.233 0 007.117-.963c.771 2.333 1.268 4.982 1.404 7.787h-8.521v-6.824zm0 9.955h8.521c-.136 2.805-.633 5.454-1.404 7.787a38.15 38.15 0 00-7.117-.963v-6.824zm0 9.957c1.995.088 3.972.345 5.92.77-1.53 3.088-3.608 5.263-5.92 5.951v-6.721zm31.941 37.016h-30.167a1.777 1.777 0 01-1.775-1.775v-25.214a21.547 21.547 0 003.573-.562v23.185a1.567 1.567 0 001.938 1.521c.097-.024 9.783-2.375 17.791-2.375 5.182 0 7.691 1.081 8.639 1.637l.001 3.583zm-8.639-8.351c-6.256 0-13.271 1.317-16.598 2.027v-22.254a21.719 21.719 0 008.265-6.069c3.113-.42 5.917-.635 8.333-.635 1.192 0 2.32.057 3.354.171a1.565 1.565 0 10.341-3.113 34.064 34.064 0 00-3.696-.19c-1.804 0-3.804.113-5.966.333a21.476 21.476 0 002.105-5.395 51.624 51.624 0 013.861-.157c5.184 0 7.691 1.081 8.639 1.637v34.959c-1.76-.679-4.508-1.314-8.638-1.314zm37.031-33.179v35.206c-3.326-.71-10.341-2.027-16.597-2.027-4.149 0-6.904.641-8.663 1.324v-34.954c.928-.552 3.433-1.652 8.663-1.652 6.342 0 13.753 1.479 16.597 2.103zm6.681 39.755c0 .978-.796 1.775-1.775 1.775h-30.167v-3.567c.928-.552 3.434-1.652 8.663-1.652 7.997 0 17.694 2.351 17.791 2.375a1.563 1.563 0 001.938-1.521V396.06h1.775c.979 0 1.775.796 1.775 1.775v35.072z"/><path d="M213.852 416.5a34.064 34.064 0 00-3.696-.19c-1.02 0-2.115.036-3.255.107a1.567 1.567 0 00.194 3.126 49.567 49.567 0 013.061-.101c1.192 0 2.32.057 3.354.171a1.565 1.565 0 10.342-3.113zm-13.764.658c-.553.082-1.123.172-1.695.267a1.566 1.566 0 00.512 3.09 96.618 96.618 0 011.644-.259 1.566 1.566 0 00-.461-3.098zm13.764-7.339a34.064 34.064 0 00-3.696-.19c-3.345 0-7.303.375-11.764 1.115a1.566 1.566 0 00.513 3.09c4.292-.712 8.078-1.073 11.252-1.073 1.192 0 2.32.057 3.354.171a1.566 1.566 0 00.341-3.113zm0-6.68a31.433 31.433 0 00-1.759-.141 1.567 1.567 0 00-.163 3.127c.544.028 1.076.071 1.581.126a1.565 1.565 0 10.341-3.112zm-15.205 4.036c.085 0 .171-.007.258-.021a86.291 86.291 0 016.562-.849 1.567 1.567 0 001.423-1.697 1.568 1.568 0 00-1.697-1.423 89.969 89.969 0 00-6.8.88 1.566 1.566 0 00.254 3.11zm28.393 12.447c.057 0 .115-.003.173-.009a31.083 31.083 0 013.354-.171c.956 0 1.985.034 3.061.101a1.566 1.566 0 00.194-3.126 52.724 52.724 0 00-3.255-.107c-1.305 0-2.549.064-3.696.19a1.566 1.566 0 00.169 3.122zm15.291-2.197a99.277 99.277 0 00-1.695-.267 1.565 1.565 0 10-.461 3.097c.565.084 1.115.171 1.644.259a1.566 1.566 0 10.512-3.089zm-15.118-4.493a31.083 31.083 0 013.354-.171c3.174 0 6.959.361 11.252 1.073a1.566 1.566 0 00.513-3.09c-4.461-.74-8.419-1.115-11.764-1.115-1.305 0-2.549.064-3.696.19a1.566 1.566 0 00.341 3.113zm-.173-6.671c.057 0 .115-.003.173-.009a27.934 27.934 0 011.581-.126 1.566 1.566 0 10-.163-3.127c-.603.031-1.195.079-1.759.141a1.566 1.566 0 00.168 3.121zm15.291-2.197a89.969 89.969 0 00-6.8-.88 1.567 1.567 0 00-.274 3.12c2.035.179 4.243.465 6.562.849a1.566 1.566 0 10.512-3.089zm-15.118-4.493a31.083 31.083 0 013.354-.171c3.174 0 6.96.361 11.252 1.073a1.567 1.567 0 00.513-3.09c-4.461-.74-8.419-1.115-11.764-1.115-1.305 0-2.549.064-3.696.19a1.566 1.566 0 00.341 3.113zm-41.924-40.254c12.08 0 22.463 8.02 25.747 19.262l-1.29-1.164a1.566 1.566 0 00-2.097 2.325l4.801 4.33a1.564 1.564 0 002.539-.683l2.022-6.275a1.567 1.567 0 00-2.981-.961l-.238.738c-3.921-12.13-15.305-20.705-28.504-20.705-12.6 0-23.931 7.962-28.196 19.812a1.566 1.566 0 102.947 1.061c3.819-10.611 13.966-17.74 25.25-17.74z"/></svg>